<?xml version="1.0" encoding="UTF-8"?>
<svg id="Capa_2" data-name="Capa 2" xmlns="http://www.w3.org/2000/svg" xmlns:xlink="http://www.w3.org/1999/xlink" viewBox="0 0 1239.42 651.36">
  <defs>
    <style>
      .cls-1 {
        fill: url(#Degradado_sin_nombre_28);
      }

      .cls-2 {
        fill: #08264b;
      }

      .cls-3 {
        fill: url(#Degradado_sin_nombre_28-2);
      }

      .cls-4 {
        fill: url(#Degradado_sin_nombre_28-5);
      }

      .cls-5 {
        fill: url(#Degradado_sin_nombre_28-4);
      }

      .cls-6 {
        fill: url(#Degradado_sin_nombre_28-3);
      }
    </style>
    <linearGradient id="Degradado_sin_nombre_28" data-name="Degradado sin nombre 28" x1="392.47" y1="150.65" x2="735.34" y2="150.65" gradientUnits="userSpaceOnUse">
      <stop offset="0" stop-color="#0d3158"/>
      <stop offset="1" stop-color="#0fbdb0"/>
    </linearGradient>
    <linearGradient id="Degradado_sin_nombre_28-2" data-name="Degradado sin nombre 28" x1="642.51" y1="203.61" x2="845.2" y2="203.61" xlink:href="#Degradado_sin_nombre_28"/>
    <linearGradient id="Degradado_sin_nombre_28-3" data-name="Degradado sin nombre 28" x1="408.3" y1="261.32" x2="731.3" y2="261.32" xlink:href="#Degradado_sin_nombre_28"/>
    <linearGradient id="Degradado_sin_nombre_28-4" data-name="Degradado sin nombre 28" x1="516.07" y1="441.47" x2="696.57" y2="441.47" xlink:href="#Degradado_sin_nombre_28"/>
    <linearGradient id="Degradado_sin_nombre_28-5" data-name="Degradado sin nombre 28" x1="662.89" y1="361.59" x2="775.24" y2="361.59" xlink:href="#Degradado_sin_nombre_28"/>
  </defs>
  <g id="Capa_1-2" data-name="Capa 1">
    <path class="cls-1" d="M452.13,115.75s-1.49,114.05,36.17,185.54c0,0-109.16-4.47-94.47-226.61L619.19,0s109.76,38.3,116.15,37.02c0,0-33.25-5.96-128,27.87-4.21,1.5-8.32,3.28-12.57,4.65l-142.64,46.2Z"/>
    <path class="cls-3" d="M642.51,70.32s78.52-49.79,201.72,5.11c0,0,13.41,180.01-59.37,282.15,0,0-28.09-52.34-35.11-61.28,0,0,42.18-91.76,37.5-178.58,0,0-83.09-30.11-144.74-47.4Z"/>
    <path class="cls-6" d="M700.23,243.26l-81.04-141.71-82.36,145.36c-2.15,3.79-3.98,7.75-5.63,11.78-2.15,5.25-5,10.67-8.01,15.94-17.32,30.31-32.42,33.81-32.42,33.81-49.37,7.66-82.47-61.77-82.47-61.77,36.28,131.87,95.75,174.43,95.75,174.43,8.38-20.45,16.77-36.21,23.8-47.74,8.93-14.65,21.16-27,35.71-36.08l140.5-87.63,27.24-17.02-31.07,10.64ZM579.8,286.19l39.39-66.39,26.99,44.05-66.39,22.34Z"/>
    <path class="cls-5" d="M546.07,380.98s-26.49,50.75-30,52.66c0,0,63.89,56.49,103.12,68.3,0,0,94.44-40.53,74.66-120.97,0,0-31.28,31.92-73.09,55.22,0,0-35.43-12.45-74.69-55.22Z"/>
    <path class="cls-4" d="M662.89,294.17l44.05-37.66,68.3,118.36s-41.76,60.62-94.79,91.81c0,0,25.48-21.7,30.59-73.62,0,0,2.13-25.43-48.14-98.89Z"/>
    <g>
      <path class="cls-2" d="M10.95,638.8c-7.3-8.38-10.95-19.59-10.95-33.66,0-11.38,2.03-20.61,6.09-27.69,4.06-7.08,9.45-12.17,16.17-15.27,6.72-3.1,14.29-4.65,22.7-4.65,5.9,0,11.31.67,16.25,2.01s9.86,3.4,14.8,6.18l-7.73,14.58c-6.9-4.26-14.39-6.39-22.46-6.39-16.43,0-24.64,10.04-24.64,30.12,0,10,2.28,17.58,6.85,22.77,4.57,5.18,11.03,7.77,19.39,7.77,4.28,0,8.02-.53,11.23-1.6,3.21-1.06,6.56-2.57,10.06-4.51l8.02,13.88c-5.22,2.96-10.32,5.2-15.3,6.73-4.98,1.53-10.28,2.29-15.88,2.29-15.76,0-27.29-4.19-34.59-12.56Z"/>
      <path class="cls-2" d="M108.78,632.48h43.22v16.94h-63.24v-89.95h20.02v73.02Z"/>
      <path class="cls-2" d="M215.25,559.47l33.8,88.84v1.11h-21.9l-7.54-21.52h-34.81l-7.4,21.52h-21.61v-1.11l33.8-88.84h25.67ZM190.3,612.08h23.79l-12.04-34.29-11.75,34.29Z"/>
      <path class="cls-2" d="M261.81,649.42v-89.95h20.02v89.95h-20.02Z"/>
      <path class="cls-2" d="M404.25,559.47v89.95h-20.02v-55.94c-1.27,3.42-3.4,7.91-6.41,13.46l-16.32,31.37h-15.89l-16.61-31.37c-3.01-5.64-5.15-10.13-6.41-13.46v55.94h-20.02v-89.95h21.18l21.47,39.42c1.64,3.05,3.19,6.18,4.64,9.37,1.45,3.19,2.61,5.99,3.48,8.4,1.37-4.26,4.1-10.18,8.2-17.77l21.82-39.42h20.89Z"/>
      <path class="cls-2" d="M533.77,597.64v44.98c-6.48,3.15-12.55,5.39-18.2,6.73-5.66,1.34-11.44,2.01-17.33,2.01-15.76,0-27.32-4.19-34.67-12.56-7.35-8.38-11.02-19.69-11.02-33.94,0-10.92,2.08-19.92,6.24-27,4.16-7.08,9.77-12.24,16.83-15.48,7.06-3.24,15.08-4.86,24.08-4.86,5.9,0,11.55.72,16.97,2.15,5.41,1.44,10.39,3.54,14.94,6.32l-8.43,14.02c-7.37-4.16-14.88-6.25-22.54-6.25-9.01,0-15.75,2.61-20.21,7.84-4.46,5.23-6.69,12.7-6.69,22.42,0,10.27,2.09,17.93,6.28,22.97,4.18,5.05,10.81,7.57,19.87,7.57,5.12,0,9.75-.74,13.89-2.22v-34.49s20.22-.22,20.02-.22Z"/>
      <path class="cls-2" d="M566.84,646.3c-6.09-3.38-10.52-7.96-13.27-13.74-2.76-5.78-4.13-12.38-4.13-19.78v-53.31h20.02v50.95c0,7.77,1.64,13.81,4.92,18.12,3.28,4.3,8.99,6.46,17.14,6.46s13.21-2.15,16.4-6.46c3.18-4.3,4.77-9.88,4.77-16.73v-52.33h20.02v52.89c0,9.16-1.84,16.64-5.51,22.42-3.68,5.79-8.68,10-15.01,12.63-6.33,2.64-13.66,3.96-21.98,3.96-9.48,0-17.26-1.69-23.35-5.07Z"/>
      <path class="cls-2" d="M698.54,559.47l33.8,88.84v1.11h-21.9l-7.54-21.52h-34.81l-7.4,21.52h-21.61v-1.11l33.8-88.84h25.67ZM673.6,612.08h23.79l-12.04-34.29-11.75,34.29Z"/>
      <path class="cls-2" d="M819.08,648.31v1.11h-23.02l-23.61-32.76h-7.92v32.76h-20.02v-89.95h31.48c8.31,0,15.25,1.23,20.81,3.68,5.56,2.45,9.69,5.79,12.4,10,2.71,4.21,4.06,9,4.06,14.37,0,6.29-1.65,11.73-4.93,16.31-3.29,4.58-8.12,7.98-14.5,10.2l25.24,34.29ZM764.54,601.81h9.04c5.93,0,10.5-1.06,13.7-3.19,3.21-2.13,4.81-5.64,4.81-10.55,0-4.26-1.43-7.45-4.3-9.58-2.86-2.13-6.86-3.19-12-3.19h-11.26v26.51Z"/>
      <path class="cls-2" d="M900.89,569.67c8.99,6.8,13.49,18.39,13.49,34.77,0,10-2.37,18.37-7.11,25.13-4.74,6.76-11.05,11.75-18.93,14.99-7.88,3.24-16.56,4.86-26.04,4.86h-30.61v-89.95h31.33c16.24,0,28.86,3.4,37.86,10.2ZM878.21,630.19c4.95-1.53,8.68-4.33,11.21-8.4,2.52-4.07,3.78-9.86,3.78-17.35,0-6.94-1.14-12.45-3.41-16.52-2.27-4.07-5.63-7.01-10.07-8.82-4.44-1.8-10.04-2.71-16.81-2.71h-11.2v56.08h6.66c8.28,0,14.89-.76,19.83-2.29Z"/>
      <path class="cls-2" d="M930.76,649.42v-89.95h20.02v89.95h-20.02Z"/>
      <path class="cls-2" d="M1022.43,559.47l33.8,88.84v1.11h-21.9l-7.54-21.52h-34.81l-7.4,21.52h-21.61v-1.11l33.8-88.84h25.67ZM997.48,612.08h23.79l-12.04-34.29-11.75,34.29Z"/>
      <path class="cls-2" d="M1151.82,559.47v89.95h-22.34l-29.55-41.92c-2.53-3.7-4.66-6.92-6.4-9.65-1.75-2.73-3.45-5.81-5.09-9.23v60.8h-20.02v-89.95h22.05l32.17,46.09c.39.56,1.26,1.83,2.62,3.82,1.36,1.99,2.6,3.87,3.71,5.62,1.11,1.76,2.06,3.47,2.84,5.14v-60.66h20.02Z"/>
      <path class="cls-2" d="M1164.87,640.54l9.28-13.74c8.99,5.46,17.79,8.19,26.4,8.19,5.51,0,9.84-.83,12.98-2.5,3.14-1.66,4.71-4.16,4.71-7.5,0-2.03-.51-3.72-1.52-5.07-1.01-1.34-2.81-2.64-5.37-3.89-2.56-1.25-6.41-2.85-11.53-4.79l-3.34-1.25c-6.19-2.31-11.17-4.53-14.94-6.66-3.77-2.13-6.77-4.86-8.99-8.19-2.22-3.33-3.34-7.54-3.34-12.63,0-5.64,1.69-10.34,5.08-14.09,3.38-3.75,7.73-6.5,13.05-8.26,5.32-1.76,10.97-2.64,16.97-2.64,5.41,0,11,.86,16.75,2.57,5.75,1.71,11.24,4.23,16.46,7.57l-9.37,13.6c-4.61-2.68-8.7-4.63-12.25-5.83-3.56-1.2-7.4-1.8-11.53-1.8-4.61,0-8.1.74-10.45,2.22-2.35,1.48-3.53,3.47-3.53,5.97,0,1.58.48,2.99,1.44,4.23.96,1.25,2.69,2.5,5.19,3.75,2.5,1.25,6.11,2.71,10.82,4.37l3.17,1.11c6.15,2.22,11.13,4.3,14.93,6.25,3.8,1.94,6.99,4.72,9.59,8.33,2.6,3.61,3.89,8.28,3.89,14.02,0,6.02-1.65,11.08-4.93,15.2-3.29,4.12-7.76,7.2-13.42,9.23-5.66,2.03-12.06,3.05-19.22,3.05-14.5,0-26.83-3.61-36.99-10.83Z"/>
    </g>
  </g>
</svg>